<?xml version="1.0" encoding="UTF-8" standalone="no"?>
<!DOCTYPE svg PUBLIC "-//W3C//DTD SVG 1.1//EN"
 "http://www.w3.org/Graphics/SVG/1.1/DTD/svg11.dtd">
<!-- Generated by graphviz version 2.40.1 (20161225.0304)
 -->
<!-- Title: %3 Pages: 1 -->
<svg width="879pt" height="231pt"
 viewBox="0.00 0.00 879.24 231.00" xmlns="http://www.w3.org/2000/svg" xmlns:xlink="http://www.w3.org/1999/xlink">
<g id="graph0" class="graph" transform="scale(1 1) rotate(0) translate(4 227)">
<title>%3</title>
<polygon fill="#3f3f3f" stroke="transparent" points="-4,4 -4,-227 875.2385,-227 875.2385,4 -4,4"/>
<text text-anchor="middle" x="435.6192" y="-9.2" font-family="Times,serif" font-size="16.00" fill="#ffffff">Network Map</text>
<!-- R6 -->
<g id="node1" class="node">
<title>R6</title>
<polygon fill="#006699" stroke="#006699" points="94.7385,-223 17.7385,-223 17.7385,-150 94.7385,-150 94.7385,-223"/>
<text text-anchor="middle" x="56.2385" y="-182.8" font-family="Helvetica,sans-Serif" font-size="14.00" fill="#ffffff">R6</text>
</g>
<!-- R4 -->
<g id="node2" class="node">
<title>R4</title>
<polygon fill="#006699" stroke="#006699" points="524.7385,-99 447.7385,-99 447.7385,-26 524.7385,-26 524.7385,-99"/>
<text text-anchor="middle" x="486.2385" y="-58.8" font-family="Helvetica,sans-Serif" font-size="14.00" fill="#ffffff">R4</text>
</g>
<!-- SW1 -->
<g id="node4" class="node">
<title>SW1</title>
<polygon fill="#006699" stroke="#006699" points="654.7385,-223 563.7385,-223 563.7385,-150 654.7385,-150 654.7385,-223"/>
<text text-anchor="middle" x="609.2385" y="-182.8" font-family="Helvetica,sans-Serif" font-size="14.00" fill="#ffffff">SW1</text>
</g>
<!-- R4&#45;&#45;SW1 -->
<g id="edge6" class="edge">
<title>R4&#45;&#45;SW1</title>
<path fill="none" stroke="#00ff00" stroke-dasharray="5,2" d="M515.4905,-99.1955C524.665,-110.0797 535.0618,-121.8078 545.2385,-132 551.2192,-137.9899 557.775,-144.0631 564.3384,-149.8745"/>
<text text-anchor="middle" x="595.2385" y="-120.8" font-family="Courier,monospace" font-size="14.00" fill="#ffffff"> &#160;&#160;&#160;&#160;&#160;&#160;&#160;&#160;&#160;&#160;&#160;</text>
<text text-anchor="middle" x="535.3384" y="-138.6745" font-family="Courier,monospace" font-size="14.00" fill="#ffffff">Eth 0/4</text>
<text text-anchor="middle" x="486.4905" y="-102.9955" font-family="Courier,monospace" font-size="14.00" fill="#ffffff">Eth 0/0</text>
</g>
<!-- R5 -->
<g id="node6" class="node">
<title>R5</title>
<polygon fill="#006699" stroke="#006699" points="340.7385,-223 263.7385,-223 263.7385,-150 340.7385,-150 340.7385,-223"/>
<text text-anchor="middle" x="302.2385" y="-182.8" font-family="Helvetica,sans-Serif" font-size="14.00" fill="#ffffff">R5</text>
</g>
<!-- R4&#45;&#45;R5 -->
<g id="edge7" class="edge">
<title>R4&#45;&#45;R5</title>
<path fill="none" stroke="#00ff00" stroke-dasharray="5,2" d="M447.4176,-97.7849C433.8965,-109.3107 418.3262,-121.7671 403.2385,-132 383.6156,-145.3088 360.4118,-158.0209 341.1963,-167.8153"/>
<text text-anchor="middle" x="473.2385" y="-120.8" font-family="Courier,monospace" font-size="14.00" fill="#ffffff"> &#160;&#160;&#160;&#160;&#160;&#160;&#160;&#160;&#160;&#160;&#160;</text>
<text text-anchor="middle" x="370.1963" y="-156.6153" font-family="Courier,monospace" font-size="14.00" fill="#ffffff">Eth 0/1</text>
<text text-anchor="middle" x="418.4176" y="-86.5849" font-family="Courier,monospace" font-size="14.00" fill="#ffffff">Eth 0/1</text>
</g>
<!-- R2 -->
<g id="node3" class="node">
<title>R2</title>
<polygon fill="#006699" stroke="#006699" points="217.7385,-99 140.7385,-99 140.7385,-26 217.7385,-26 217.7385,-99"/>
<text text-anchor="middle" x="179.2385" y="-58.8" font-family="Helvetica,sans-Serif" font-size="14.00" fill="#ffffff">R2</text>
</g>
<!-- R2&#45;&#45;R6 -->
<g id="edge4" class="edge">
<title>R2&#45;&#45;R6</title>
<path fill="none" stroke="#00ff00" stroke-dasharray="5,2" d="M140.4951,-72.756C117.0182,-80.9483 88.3848,-94.8162 71.2385,-117 63.9916,-126.3759 60.0706,-138.4933 58,-149.9776"/>
<text text-anchor="middle" x="121.2385" y="-120.8" font-family="Courier,monospace" font-size="14.00" fill="#ffffff"> &#160;&#160;&#160;&#160;&#160;&#160;&#160;&#160;&#160;&#160;&#160;</text>
<text text-anchor="middle" x="29" y="-138.7776" font-family="Courier,monospace" font-size="14.00" fill="#ffffff">Eth 0/1</text>
<text text-anchor="middle" x="111.4951" y="-61.556" font-family="Courier,monospace" font-size="14.00" fill="#ffffff">Eth 0/2</text>
</g>
<!-- R2&#45;&#45;SW1 -->
<g id="edge2" class="edge">
<title>R2&#45;&#45;SW1</title>
<path fill="none" stroke="#00ff00" stroke-dasharray="5,2" d="M218.0334,-81.4287C237.2088,-91.2831 260.4259,-103.9753 280.2385,-117 289.2286,-122.9101 289.4197,-127.6016 299.2385,-132 345.8043,-152.8598 489.4006,-172.2881 563.6809,-181.2728"/>
<text text-anchor="middle" x="349.2385" y="-120.8" font-family="Courier,monospace" font-size="14.00" fill="#ffffff"> &#160;&#160;&#160;&#160;&#160;&#160;&#160;&#160;&#160;&#160;&#160;</text>
<text text-anchor="middle" x="534.6809" y="-170.0728" font-family="Courier,monospace" font-size="14.00" fill="#ffffff">Eth 0/2</text>
<text text-anchor="middle" x="247.0334" y="-70.2287" font-family="Courier,monospace" font-size="14.00" fill="#ffffff">Eth 0/0</text>
</g>
<!-- R2&#45;&#45;R5 -->
<g id="edge3" class="edge">
<title>R2&#45;&#45;R5</title>
<path fill="none" stroke="#00ff00" stroke-dasharray="5,2" d="M172.4442,-99.0315C172.1681,-110.3879 173.9317,-122.4268 180.2385,-132 198.6796,-159.9924 235.1725,-173.7481 263.463,-180.4205"/>
<text text-anchor="middle" x="230.2385" y="-120.8" font-family="Courier,monospace" font-size="14.00" fill="#ffffff"> &#160;&#160;&#160;&#160;&#160;&#160;&#160;&#160;&#160;&#160;&#160;</text>
<text text-anchor="middle" x="234.463" y="-169.2205" font-family="Courier,monospace" font-size="14.00" fill="#ffffff">Eth 0/0</text>
<text text-anchor="middle" x="143.4442" y="-102.8315" font-family="Courier,monospace" font-size="14.00" fill="#ffffff">Eth 0/1</text>
</g>
<!-- R1 -->
<g id="node5" class="node">
<title>R1</title>
<polygon fill="#006699" stroke="#006699" points="709.7385,-99 632.7385,-99 632.7385,-26 709.7385,-26 709.7385,-99"/>
<text text-anchor="middle" x="671.2385" y="-58.8" font-family="Helvetica,sans-Serif" font-size="14.00" fill="#ffffff">R1</text>
</g>
<!-- R1&#45;&#45;SW1 -->
<g id="edge1" class="edge">
<title>R1&#45;&#45;SW1</title>
<path fill="none" stroke="#00ff00" stroke-dasharray="5,2" d="M662.1003,-99.0999C658.7401,-109.9808 654.4529,-121.731 649.2385,-132 646.2095,-137.965 642.5464,-143.9756 638.6816,-149.7157"/>
<text text-anchor="middle" x="705.2385" y="-120.8" font-family="Courier,monospace" font-size="14.00" fill="#ffffff"> &#160;&#160;&#160;&#160;&#160;&#160;&#160;&#160;&#160;&#160;&#160;</text>
<text text-anchor="middle" x="609.6816" y="-138.5157" font-family="Courier,monospace" font-size="14.00" fill="#ffffff">Eth 0/1</text>
<text text-anchor="middle" x="633.1003" y="-102.8999" font-family="Courier,monospace" font-size="14.00" fill="#ffffff">Eth 0/0</text>
</g>
<!-- R3 -->
<g id="node7" class="node">
<title>R3</title>
<polygon fill="#006699" stroke="#006699" points="832.7385,-99 755.7385,-99 755.7385,-26 832.7385,-26 832.7385,-99"/>
<text text-anchor="middle" x="794.2385" y="-58.8" font-family="Helvetica,sans-Serif" font-size="14.00" fill="#ffffff">R3</text>
</g>
<!-- R3&#45;&#45;SW1 -->
<g id="edge5" class="edge">
<title>R3&#45;&#45;SW1</title>
<path fill="none" stroke="#00ff00" stroke-dasharray="5,2" d="M782.0092,-99.1945C776.5848,-110.9609 769.136,-123.2067 759.2385,-132 729.9291,-158.0395 687.193,-171.9437 654.8275,-179.1724"/>
<text text-anchor="middle" x="821.2385" y="-120.8" font-family="Courier,monospace" font-size="14.00" fill="#ffffff"> &#160;&#160;&#160;&#160;&#160;&#160;&#160;&#160;&#160;&#160;&#160;</text>
<text text-anchor="middle" x="683.8275" y="-167.9724" font-family="Courier,monospace" font-size="14.00" fill="#ffffff">Eth 0/3</text>
<text text-anchor="middle" x="753.0092" y="-102.9945" font-family="Courier,monospace" font-size="14.00" fill="#ffffff">Eth 0/0</text>
</g>
</g>
</svg>
